<?xml version="1.0" standalone="no"?>
<!DOCTYPE svg PUBLIC "-//W3C//DTD SVG 20010904//EN"
 "http://www.w3.org/TR/2001/REC-SVG-20010904/DTD/svg10.dtd">
<svg version="1.0" xmlns="http://www.w3.org/2000/svg"
 width="100.000000pt" height="100.000000pt" viewBox="0 0 100.000000 100.000000"
 preserveAspectRatio="xMidYMid meet">

<g transform="translate(0.000000,100.000000) scale(0.100000,-0.100000)"
fill="#000000" stroke="none">
<path d="M168 984 c-65 -20 -133 -89 -153 -156 -22 -75 -22 -581 0 -656 21
-69 88 -136 157 -157 75 -22 581 -22 656 0 69 21 136 88 157 157 22 75 22 581
0 656 -21 69 -88 136 -157 157 -72 21 -590 21 -660 -1z m461 -144 c17 -58 63
-106 120 -125 53 -17 61 -30 61 -99 l0 -39 -49 6 c-27 3 -68 15 -90 26 -22 12
-43 21 -46 21 -3 0 -5 -71 -5 -157 0 -180 -9 -211 -76 -274 -45 -42 -89 -59
-149 -59 -85 0 -147 36 -197 113 -28 43 -31 57 -31 121 0 92 27 147 95 193 46
30 140 59 159 47 5 -3 9 -36 9 -73 l0 -67 -34 4 c-48 6 -95 -38 -103 -94 -5
-36 -1 -45 27 -77 27 -32 38 -37 74 -37 46 1 80 23 96 65 6 15 10 135 10 286
l0 259 58 0 59 0 12 -40z"/>
</g>
</svg>
